<?xml version="1.0" encoding="utf-8"?>
<!-- Generator: Adobe Illustrator 24.3.0, SVG Export Plug-In . SVG Version: 6.00 Build 0)  -->
<svg version="1.1" id="svg" xmlns="http://www.w3.org/2000/svg" xmlns:xlink="http://www.w3.org/1999/xlink" x="0px" y="0px"
	 viewBox="0 0 400 400" style="enable-background:new 0 0 400 400;" xml:space="preserve">
<style type="text/css">
	.st0{fill:#59C2E6;stroke:#000000;stroke-miterlimit:10;}
	.st1{fill-rule:evenodd;clip-rule:evenodd;fill:#E4EEF7;}
	.st2{fill-rule:evenodd;clip-rule:evenodd;fill:#59C2E6;}
	.st3{fill-rule:evenodd;clip-rule:evenodd;fill:#4F5F6F;}
</style>
<rect class="st0" width="399.8" height="399.8"/>
<path id="path0" class="st1" d="M72.7,102.3c-0.5,0.5-0.3,171.5,0.2,172.1c0.7,0.7,67.5,0.7,68.2,0c0.5-0.5,0.7-53.4,0.2-54.2
	c-0.2-0.2-1.5-0.9-2.9-1.3c-37-12.8-59.4-56.3-48-93c1.2-4,1.6-5.1,2.8-8c1.5-3.7,4.6-9.7,6.6-12.7c0.8-1.1,1.4-2.3,1.4-2.6
	C101.2,102,73.2,101.7,72.7,102.3 M133.8,102.6c-6.3,3.4-17.8,18-19.1,24.2c-0.1,0.5-0.7,2.6-1.3,4.6c-10,33.8,15.4,68.5,50.1,68.6
	c5.9,0,13.9-1.2,17.8-2.8c0.4-0.2,1.9-0.7,3.2-1.2c11.5-4.4,22.8-15,28-26.3c0.8-1.7,1.6-3.4,1.8-3.8c0.2-0.4,0.4-1,0.4-1.5
	c0-0.4,0.2-0.9,0.4-1s0.4-0.7,0.6-1.3c0.1-0.6,0.4-1.8,0.7-2.7c1.7-6.2,1.9-18.2,0.4-24.3c-0.9-3.5-1.3-4.9-1.6-5.7
	c-0.2-0.4-0.7-1.9-1.2-3.2c-1.7-4.5-5.9-11.4-6.9-11.4c-1.4,0-5.3,8.5-6.5,14.2c-0.3,1.6-0.8,0.9-1.5-2.4
	c-2.5-10.5-11.5-20.1-21.5-23c-1-0.3-2.3-0.7-3-1C172.5,101.9,135.3,101.8,133.8,102.6 M229.3,102.3c-1.2,0.2-1.2,0.1,1.2,4.1
	s5.5,10.1,5.5,11c0,0.3,0.1,0.7,0.3,0.8c0.2,0.1,0.7,1.5,1.2,3.1s1.1,3.3,1.2,3.7c0.5,1.3,1.6,6.1,2.4,10.9
	c0.2,1.4,0.4,6.1,0.4,10.5c0,7.5-0.2,9.8-1.3,15c-5.1,25.1-22.4,46.4-45.4,56c-0.9,0.4-1.9,0.8-2.2,1s-1.5,0.6-2.5,0.9
	c-2.5,0.7-2.3-1.7-2.2,28.8l0.1,26.6h69.3c38.1,0,69.4-0.1,69.5-0.2s0.2-38.9,0.3-86.2l0.1-86h-48.6
	C252.1,102.1,229.8,102.2,229.3,102.3"/>
<path id="path1" class="st2" d="M178.3,0.3c-1.9,0.1-3.5,0.3-3.5,0.5s-1.2,0.4-2.8,0.4c-1.5,0-2.9,0.2-3,0.4S167.8,2,166.6,2
	s-2.2,0.2-2.2,0.4s-1,0.4-2.2,0.4C161,2.8,160,3,160,3.2s-0.8,0.4-1.8,0.4s-1.9,0.2-2,0.4s-1,0.4-1.8,0.4c-0.9,0-1.6,0.2-1.6,0.4
	c0,0.2-0.7,0.4-1.6,0.4c-0.9,0-1.6,0.2-1.6,0.4c0,0.2-0.6,0.4-1.4,0.4s-1.4,0.2-1.4,0.4c0,0.2-0.6,0.4-1.4,0.4
	c-0.8,0-1.4,0.2-1.4,0.4c0,0.2-0.6,0.4-1.4,0.4c-0.8,0-1.4,0.2-1.4,0.4c0,0.2-0.6,0.5-1.3,0.6S138.3,8.9,138,9
	c-0.3,0.1-1.1,0.3-1.8,0.5s-1.6,0.4-2,0.6c-0.4,0.2-1.4,0.5-2.2,0.8c-1.7,0.6-3.2,1.2-4.1,1.6c-0.4,0.2-1.1,0.4-1.5,0.4
	s-0.8,0.2-0.8,0.4s-0.4,0.4-0.8,0.4s-0.8,0.2-0.8,0.4s-0.4,0.4-1,0.4c-0.5,0-1.1,0.2-1.2,0.4s-0.6,0.4-1,0.4s-0.8,0.2-0.8,0.4
	s-0.4,0.4-0.8,0.4s-0.8,0.2-0.8,0.4c0,0.2-0.3,0.4-0.6,0.4s-0.9,0.2-1.3,0.4c-0.4,0.2-2.3,1.1-4.3,2.1c-2,0.9-3.7,1.8-3.7,2
	c-0.1,0.2-0.5,0.3-0.9,0.3s-0.8,0.2-0.8,0.4s-0.4,0.4-0.8,0.4s-0.8,0.2-0.8,0.4c0,0.2-0.3,0.4-0.6,0.4s-0.6,0.2-0.6,0.4
	c0,0.2-0.3,0.4-0.6,0.4s-0.6,0.2-0.6,0.4c0,0.2-0.3,0.4-0.6,0.4c-0.7,0-4.7,2-4.9,2.5c-0.1,0.2-0.4,0.3-0.7,0.3
	c-0.3,0-0.6,0.2-0.6,0.4s-0.3,0.5-0.8,0.6c-0.4,0.1-1.2,0.6-1.7,1s-1,0.7-1.2,0.6s-0.5,0.2-0.8,0.6s-0.8,0.8-1.2,0.8
	c-0.3,0-0.9,0.4-1.2,0.8c-0.3,0.4-0.9,0.8-1.2,0.8s-0.9,0.4-1.2,0.8c-0.3,0.4-0.8,0.8-1.1,0.8s-1.1,0.5-1.8,1.2
	c-0.7,0.7-1.5,1.2-1.7,1.2s-0.7,0.4-1,0.8c-0.3,0.4-0.8,0.8-1.1,0.8c-0.3,0-1,0.5-1.7,1.2c-0.6,0.7-1.3,1.2-1.5,1.2
	s-0.6,0.4-1.1,0.9c-0.4,0.5-0.7,0.7-0.7,0.6c0-0.2-0.5,0.2-1,0.7s-1.2,1-1.4,1c-0.2,0-1.2,0.9-2.3,1.9c-2.3,2.2-3.6,3.3-3.9,3.3
	c-0.1,0-2,1.8-4.2,4.1c-4.8,4.9-3.7,3.9-8.7,8.7c-2.3,2.2-4.1,4.1-4.1,4.2c0,0.3-1.1,1.6-3.3,3.9c-1,1.1-1.9,2.1-1.9,2.3
	c0,0.2-0.5,0.8-1,1.4s-0.9,1-0.7,1s-0.1,0.3-0.6,0.7c-0.5,0.4-0.9,0.9-0.9,1.1s-0.5,0.8-1.2,1.5c-0.7,0.6-1.2,1.4-1.2,1.7
	c0,0.3-0.4,0.8-0.8,1.1c-0.4,0.3-0.8,0.8-0.8,1s-0.5,1-1.2,1.7s-1.2,1.5-1.2,1.8s-0.4,0.8-0.8,1.1c-0.4,0.3-0.8,0.9-0.8,1.2
	s-0.4,0.9-0.8,1.2c-0.4,0.3-0.8,0.9-0.8,1.2c0,0.3-0.4,0.9-0.8,1.2c-0.4,0.3-0.8,0.9-0.8,1.3s-0.2,0.7-0.4,0.7
	c-0.2,0-0.4,0.2-0.4,0.5s-0.4,0.9-0.8,1.4s-0.8,1-0.8,1.3c0,0.2-0.2,0.4-0.3,0.4c-0.4,0-1.9,3.2-1.8,3.7c0.1,0.2-0.1,0.3-0.3,0.3
	c-0.2,0-0.4,0.4-0.4,0.8s-0.2,0.8-0.4,0.8c-0.2,0-0.4,0.3-0.4,0.6s-0.1,0.6-0.3,0.6c-0.2,0-0.6,0.6-0.9,1.4s-0.7,1.4-0.9,1.4
	c-0.2,0-0.3,0.3-0.3,0.8c0,0.4-0.1,0.8-0.3,0.9c-0.2,0.1-1.1,1.8-2,3.7c-0.9,2-1.9,3.9-2.1,4.3s-0.4,1-0.4,1.3s-0.2,0.6-0.4,0.6
	c-0.2,0-0.4,0.4-0.4,0.8s-0.1,0.8-0.3,0.8s-0.6,0.9-0.9,2s-0.7,2-0.9,2s-0.3,0.4-0.3,0.8s-0.2,0.8-0.4,0.8s-0.4,0.4-0.4,0.8
	s-0.2,1.1-0.4,1.5c-0.5,0.9-1.1,2.4-1.6,4.1c-0.3,0.8-0.6,1.8-0.8,2.2s-0.5,1.3-0.6,2c-0.2,0.7-0.4,1.5-0.5,1.8s-0.3,1.2-0.4,1.9
	c-0.1,0.7-0.4,1.4-0.6,1.5s-0.4,0.7-0.4,1.4s-0.2,1.3-0.4,1.4c-0.2,0.1-0.4,0.7-0.4,1.2s-0.2,1.1-0.4,1.2c-0.2,0.1-0.4,0.9-0.4,1.6
	s-0.2,1.5-0.4,1.6c-0.2,0.1-0.4,0.9-0.4,1.6c0,0.8-0.2,1.4-0.4,1.4c-0.2,0-0.4,0.7-0.4,1.6c0,0.9-0.2,1.7-0.4,1.8s-0.4,1-0.4,2
	s-0.2,1.9-0.4,2s-0.4,1-0.4,2s-0.2,1.9-0.4,2s-0.4,1.2-0.4,2.4s-0.2,2.3-0.4,2.4s-0.4,1.4-0.4,2.7c0,1.5-0.2,2.7-0.5,3
	c-0.4,0.4-0.5,6-0.5,25.3c0,19.5,0.1,24.9,0.5,25c0.3,0.1,0.5,1.1,0.5,2.9c0,1.5,0.2,2.9,0.4,3s0.4,1.2,0.4,2.4s0.2,2.3,0.4,2.4
	c0.2,0.1,0.4,1,0.4,2s0.2,1.9,0.4,2s0.4,1,0.4,2s0.2,1.9,0.4,2s0.4,1,0.4,1.8c0,0.9,0.2,1.6,0.4,1.6c0.2,0,0.4,0.7,0.4,1.6
	c0,0.9,0.2,1.6,0.4,1.6c0.2,0,0.4,0.6,0.4,1.4s0.2,1.5,0.4,1.6c0.2,0.1,0.4,0.8,0.4,1.4c0,0.6,0.2,1.2,0.4,1.2
	c0.2,0,0.4,0.6,0.4,1.4s0.2,1.4,0.4,1.4c0.2,0,0.4,0.6,0.6,1.3c0.1,0.7,0.3,1.8,0.5,2.3c0.2,0.6,0.4,1.5,0.5,2.1s0.4,1.2,0.6,1.3
	c0.2,0.1,0.4,0.5,0.4,0.8s0.4,1.3,0.8,2.3c0.4,0.9,0.8,2,0.8,2.4s0.2,0.8,0.4,0.9s0.4,0.7,0.4,1.2s0.2,1,0.4,1s0.4,0.4,0.4,0.8
	s0.2,0.8,0.4,0.8s0.4,0.3,0.4,0.8s0.2,0.9,0.4,1s0.4,0.7,0.4,1.2s0.2,1,0.4,1s0.4,0.4,0.4,0.8s0.2,0.8,0.4,0.8s0.4,0.3,0.4,0.6
	c0,0.3,0.2,0.9,0.4,1.3c0.2,0.4,1,2,1.7,3.5s1.5,2.9,1.6,2.9c0.2,0.1,0.3,0.5,0.3,0.9s0.2,0.8,0.4,0.8c0.2,0,0.4,0.4,0.4,0.8
	s0.2,0.8,0.4,0.8s0.4,0.3,0.4,0.6c0,0.3,0.4,1,0.8,1.5s0.8,1.1,0.8,1.4s0.2,0.5,0.4,0.5c0.2,0,0.4,0.3,0.4,0.6
	c0,0.7,1.9,4.3,4.1,7.6c0.6,0.9,1,1.7,1.1,1.9c0,0.2,0.4,0.7,0.9,1c0.5,0.4,0.8,1,0.8,1.3s0.4,0.8,0.8,1.1c0.4,0.3,0.8,0.9,0.8,1.2
	s0.4,0.9,0.8,1.2c0.4,0.3,0.8,0.8,0.8,1.1c0,0.3,0.5,1.1,1.2,1.8c0.7,0.7,1.2,1.5,1.2,1.7s0.4,0.7,0.8,1c0.4,0.3,0.8,0.8,0.8,1
	s0.5,1,1.2,1.7s1.2,1.4,1.2,1.5s0.4,0.7,0.9,1.2c1.3,1.4,1.7,2,2.2,2.9c0.2,0.5,1.2,1.6,2.2,2.6c1.9,2,3.1,3.4,3.1,3.7
	c0,0.1,1.8,1.9,4,4.1s4.2,4.1,4.4,4.3c0.2,0.2,2.2,2.2,4.4,4.5c2.2,2.3,4.1,4.1,4.3,4.1c0.2,0,1.6,1.2,3.1,2.6s2.9,2.6,3.1,2.6
	s0.5,0.2,0.8,0.5s1.2,1,2.1,1.7s2.1,1.7,2.8,2.3c0.7,0.6,1.4,1.1,1.6,1.1s0.7,0.4,1,0.8s0.8,0.8,1,0.8s1,0.5,1.7,1.2
	s1.5,1.2,1.8,1.2s0.8,0.4,1.1,0.8c0.3,0.4,0.9,0.8,1.2,0.8s0.9,0.4,1.2,0.8c0.3,0.4,0.9,0.8,1.2,0.8c0.3,0,0.9,0.4,1.2,0.8
	s0.8,0.8,1.1,0.8s0.9,0.3,1.3,0.7c0.4,0.4,1.3,1,1.9,1.3s2.1,1.1,3.3,1.9c1.2,0.7,2.5,1.3,2.9,1.3s0.7,0.2,0.7,0.4
	c0,0.2,0.5,0.6,1.2,0.8c0.7,0.3,1.2,0.7,1.2,0.8c0,0.2,0.4,0.4,0.8,0.4s0.8,0.2,0.8,0.4s0.4,0.4,0.8,0.4s0.8,0.2,0.8,0.4
	s0.3,0.4,0.8,0.4c0.4,0,0.8,0.1,0.9,0.3c0.1,0.2,1,0.7,2.1,1.2s2.3,1.1,2.7,1.3c0.4,0.2,1,0.4,1.3,0.4s0.6,0.2,0.6,0.4
	s0.4,0.4,0.8,0.4s0.8,0.2,0.8,0.4s0.4,0.4,0.8,0.4s0.8,0.2,0.8,0.4s0.3,0.4,0.8,0.4s0.9,0.2,1,0.4c0.1,0.2,0.7,0.4,1.2,0.4
	s1,0.2,1,0.4s0.3,0.4,0.8,0.4s0.9,0.2,1,0.4c0.1,0.2,0.7,0.4,1.2,0.4s1,0.2,1,0.4s0.3,0.4,0.6,0.4s0.9,0.2,1.3,0.4
	c1.4,0.8,9.4,3.2,10.5,3.2c0.6,0,1.2,0.2,1.2,0.4s0.5,0.4,1.2,0.4s1.3,0.2,1.4,0.4s0.7,0.4,1.2,0.4s1.1,0.2,1.2,0.4
	c0.1,0.2,0.9,0.4,1.6,0.4s1.4,0.2,1.4,0.4s0.7,0.4,1.6,0.4c0.9,0,1.6,0.2,1.6,0.4s0.7,0.4,1.6,0.4c0.9,0,1.7,0.2,1.8,0.4
	s1,0.4,2,0.4s1.8,0.2,1.8,0.4s1,0.4,2.2,0.4s2.2,0.2,2.2,0.4s1,0.4,2.2,0.4s2.3,0.2,2.4,0.4s1.5,0.4,3,0.4c1.8,0,2.8,0.2,2.9,0.5
	c0.2,0.7,50,0.7,50.2,0c0.1-0.3,1.1-0.5,2.9-0.5c1.5,0,2.9-0.2,3-0.4s1.2-0.4,2.4-0.4s2.3-0.2,2.4-0.4s1.1-0.4,2.2-0.4
	c1.1,0,2-0.2,2-0.4s0.8-0.4,1.8-0.4s1.9-0.2,2-0.4s1-0.4,1.8-0.4c0.9,0,1.6-0.2,1.6-0.4s0.7-0.4,1.6-0.4c0.9,0,1.6-0.2,1.6-0.4
	s0.7-0.4,1.6-0.4c1,0,1.5-0.2,1.4-0.4c-0.1-0.2,0.3-0.4,1.2-0.4c0.8,0,1.4-0.2,1.4-0.4s0.6-0.4,1.4-0.4s1.4-0.2,1.4-0.4
	c0-0.2,1-0.5,2.2-0.6c1.2-0.2,2.3-0.4,2.4-0.6s0.7-0.4,1.2-0.4s1.1-0.2,1.2-0.4c0.1-0.2,0.6-0.4,1-0.4s1.1-0.2,1.5-0.4
	c0.4-0.2,1.2-0.6,1.9-0.8c0.7-0.3,1.5-0.7,1.9-0.8c0.4-0.2,1.1-0.4,1.5-0.4s0.8-0.2,0.8-0.4s0.4-0.4,0.8-0.4s0.8-0.2,0.8-0.4
	s0.5-0.4,1.2-0.4s1.2-0.2,1.2-0.4s0.4-0.4,0.8-0.4s0.8-0.2,0.8-0.4s0.4-0.4,0.8-0.4s0.8-0.2,0.8-0.4s0.3-0.4,0.6-0.4
	c0.6,0,1-0.2,2.9-1.1c0.5-0.3,1.2-0.5,1.5-0.5s0.6-0.2,0.6-0.4s0.4-0.4,0.8-0.4s0.8-0.1,0.8-0.3c0-0.2,0.6-0.6,1.4-0.9
	s1.4-0.7,1.4-0.9c0-0.2,0.4-0.3,0.8-0.3s0.8-0.2,0.8-0.4s0.4-0.4,0.8-0.4s0.8-0.2,0.8-0.4s0.2-0.4,0.5-0.4s0.9-0.4,1.4-0.8
	s1.1-0.8,1.4-0.8s1.6-0.6,2.9-1.4s2.4-1.4,2.6-1.4s0.6-0.3,1.1-0.7c0.4-0.4,1.3-1,2-1.3s1.5-0.9,1.8-1.3c0.4-0.4,0.9-0.7,1.2-0.7
	c0.3,0,0.8-0.4,1.1-0.8c0.3-0.4,0.9-0.8,1.2-0.8s0.9-0.4,1.2-0.8c0.3-0.4,0.8-0.8,1.1-0.8c0.3,0,1-0.5,1.5-1c0.5-0.6,1.2-1,1.4-1
	c0.2,0,0.8-0.5,1.4-1c0.6-0.6,1.2-1,1.4-1s1.1-0.6,1.8-1.4c0.8-0.8,1.5-1.4,1.7-1.4s0.9-0.5,1.6-1.2s1.4-1.2,1.6-1.2
	s1.6-1.2,3.1-2.6s2.9-2.6,3.1-2.6s2.2-1.9,4.5-4.2c5-5.1,4.2-4.3,8.7-8.7c2.1-2,4.3-4.4,4.9-5.2c0.6-0.9,2-2.4,3.1-3.6
	c1-1.1,1.9-2.1,1.9-2.3c0-0.2,0.6-0.9,1.4-1.7c0.8-0.7,1.4-1.6,1.4-1.8s0.5-1,1.2-1.6s1.2-1.3,1.2-1.6c0-0.3,0.4-0.9,1-1.5
	c0.5-0.5,1-1.2,1-1.4c0-0.2,0.4-0.8,1-1.4c0.5-0.5,1-1.2,1-1.5s0.4-0.8,0.8-1.1c0.4-0.3,0.8-0.9,0.8-1.2s0.4-0.9,0.8-1.2
	c0.4-0.3,0.8-0.8,0.8-1.1c0-0.3,0.3-0.9,0.7-1.2c0.4-0.4,1-1.2,1.3-1.8c0.3-0.7,0.9-1.5,1.3-2c0.4-0.4,0.7-0.9,0.7-1.1
	s0.6-1.3,1.4-2.6c0.8-1.3,1.4-2.7,1.4-3c0-0.4,0.2-0.7,0.4-0.7s0.4-0.3,0.4-0.6c0-0.3,0.2-0.6,0.4-0.6s0.4-0.3,0.4-0.6
	c0-0.3,0.2-0.6,0.4-0.6s0.4-0.4,0.4-0.8s0.2-0.8,0.4-0.8s0.4-0.4,0.4-0.8s0.1-0.8,0.3-0.8c0.2,0,0.6-0.6,0.9-1.4s0.7-1.4,0.9-1.4
	c0.2,0,0.3-0.4,0.3-0.8s0.2-0.8,0.4-0.8s0.4-0.5,0.4-1c0-0.6,0.1-1,0.3-1c0.4,0,1.3-2,1.3-2.9c0-0.4,0.2-0.7,0.4-0.7
	s0.4-0.4,0.4-0.8s0.2-0.8,0.4-0.8s0.4-0.3,0.4-0.8s0.2-0.9,0.4-1c0.2-0.1,0.4-0.7,0.4-1.2s0.2-1,0.4-1s0.4-0.4,0.4-0.8
	s0.2-0.8,0.4-0.8s0.4-0.4,0.4-0.8s0.2-1.1,0.4-1.5c0.2-0.4,0.6-1.2,0.8-1.9c0.3-0.7,0.7-1.5,0.8-1.9c0.2-0.4,0.4-1,0.4-1.3
	s0.2-0.9,0.4-1.3c0.6-1.1,1.6-4.9,1.6-5.9c0-0.5,0.2-1,0.4-1s0.4-0.6,0.4-1.4s0.2-1.4,0.4-1.4s0.4-0.6,0.4-1.4
	c0-0.8,0.2-1.4,0.4-1.4s0.4-0.6,0.4-1.4s0.2-1.4,0.4-1.4s0.4-0.7,0.4-1.6c0-0.9,0.2-1.6,0.4-1.6s0.4-0.7,0.4-1.6
	c0-0.9,0.2-1.7,0.4-1.8s0.4-1,0.4-2s0.2-1.8,0.4-1.8s0.4-0.9,0.4-2s0.2-2.1,0.4-2.2s0.4-1.2,0.4-2.4s0.2-2.3,0.4-2.4s0.4-1.5,0.4-3
	c0-1.8,0.2-2.8,0.5-2.9c0.4-0.1,0.5-5.5,0.5-25.1s-0.1-25-0.5-25.1c-0.3-0.1-0.5-1.1-0.5-2.9c0-1.5-0.2-2.9-0.4-3s-0.4-1.2-0.4-2.4
	s-0.2-2.3-0.4-2.4s-0.4-1.1-0.4-2.2c0-1.1-0.2-2-0.4-2s-0.4-0.8-0.4-1.8s-0.2-1.9-0.4-2s-0.4-1-0.4-1.8c0-0.9-0.2-1.6-0.4-1.6
	s-0.4-0.7-0.4-1.6c0-0.9-0.2-1.6-0.4-1.6s-0.4-0.6-0.4-1.4s-0.2-1.5-0.4-1.6c-0.2-0.1-0.4-0.7-0.4-1.2s-0.2-1.1-0.4-1.2
	s-0.4-0.9-0.4-1.6c0-0.8-0.2-1.4-0.4-1.4s-0.4-0.4-0.4-0.9c0-1.1-2.9-10.1-3.3-10.2c-0.2-0.1-0.3-0.5-0.3-0.9s-0.2-1.1-0.4-1.6
	c-0.2-0.4-0.6-1.2-0.8-1.6c-0.2-0.4-0.4-1.1-0.4-1.4s-0.2-0.6-0.4-0.6s-0.4-0.4-0.4-1c0-0.5-0.2-1.1-0.4-1.2c-0.2-0.1-0.4-0.6-0.4-1
	s-0.2-0.8-0.4-0.8s-0.4-0.4-0.4-0.8s-0.2-0.8-0.4-0.8s-0.4-0.4-0.4-0.8s-0.2-0.8-0.4-0.8s-0.4-0.5-0.4-1c0-0.6-0.2-1-0.4-1
	s-0.4-0.4-0.4-0.8s-0.2-0.8-0.4-0.8s-0.4-0.2-0.4-0.5c0-0.7-0.9-2.7-1.3-2.7c-0.2,0-0.3-0.4-0.3-0.8s-0.2-0.8-0.4-0.8
	s-0.4-0.4-0.4-0.8s-0.1-0.8-0.3-0.8c-0.2,0-0.7-0.9-1.3-2c-0.5-1.1-1.1-2-1.3-2c-0.2,0-0.3-0.3-0.3-0.6c0-0.6-1.9-4.5-2.4-5
	c-0.1-0.1-0.7-1-1.2-1.9s-1.1-1.7-1.3-1.7c-0.2,0-0.3-0.3-0.3-0.7c0-0.4-0.4-1-0.8-1.3s-0.8-0.9-0.8-1.2c0-0.3-0.4-0.9-0.8-1.2
	c-0.4-0.3-0.8-0.9-0.8-1.2s-0.4-0.9-0.8-1.2c-0.4-0.3-0.8-0.8-0.8-1.1s-0.5-1.1-1.2-1.8c-0.7-0.7-1.2-1.5-1.2-1.7s-0.4-0.7-0.8-1
	s-0.8-0.8-0.8-1s-0.5-1-1.2-1.7s-1.2-1.4-1.2-1.6s-0.7-1.1-1.6-2.1s-1.6-1.9-1.6-2s-1.2-1.5-2.6-3s-2.6-2.9-2.6-3.1
	s-1.8-2.1-4.1-4.3c-2.3-2.2-4.3-4.2-4.4-4.3c-0.2-0.2-2.2-2.3-4.5-4.6s-4.3-4.2-4.5-4.2s-1.5-1.1-2.8-2.4s-2.7-2.4-2.8-2.4
	c-0.2,0-0.9-0.5-1.7-1.2c-1.9-1.7-2.3-2-2.5-2c-0.1,0-0.8-0.5-1.5-1.2s-1.5-1.2-1.7-1.2s-0.7-0.4-1-0.8c-0.3-0.4-0.8-0.8-1-0.8
	s-1-0.5-1.7-1.2s-1.5-1.2-1.8-1.2s-0.8-0.4-1.1-0.8c-0.3-0.4-0.9-0.8-1.2-0.8s-0.9-0.4-1.2-0.8c-0.3-0.4-0.9-0.8-1.2-0.8
	c-0.3,0-0.9-0.4-1.2-0.8c-0.3-0.4-0.9-0.8-1.3-0.8s-0.7-0.1-0.8-0.3c-0.2-0.4-2.2-1.7-3.7-2.5c-0.7-0.3-1.3-0.7-1.4-0.8
	c-0.3-0.4-2.9-1.6-3.4-1.6c-0.3,0-0.6-0.1-0.6-0.3c-0.2-0.4-2.3-1.7-3.2-2c-0.4-0.1-0.7-0.4-0.7-0.6s-0.4-0.4-0.8-0.4
	s-0.8-0.2-0.8-0.4c0-0.2-0.4-0.4-0.8-0.4s-0.8-0.1-0.8-0.3c0-0.4-1.9-1.3-2.7-1.3c-0.3,0-0.4-0.2-0.3-0.4c0.1-0.2,0-0.4-0.4-0.4
	c-0.6,0-1-0.2-2.9-1.1c-0.5-0.3-1.2-0.5-1.5-0.5s-0.6-0.2-0.6-0.4c0-0.2-0.4-0.4-0.8-0.4s-0.8-0.2-0.8-0.4s-0.3-0.4-0.8-0.4
	s-0.9-0.2-1-0.4s-0.7-0.4-1.2-0.4s-1-0.2-1-0.4s-0.4-0.4-0.8-0.4s-0.8-0.2-0.8-0.4s-0.4-0.4-1-0.4c-0.5,0-1.1-0.2-1.2-0.4
	s-0.6-0.4-0.9-0.4c-0.4,0-1.4-0.4-2.4-0.8c-0.9-0.4-1.8-0.8-2.1-0.8s-0.7-0.2-1.1-0.4c-1.1-0.6-4.9-1.6-5.9-1.6c-0.5,0-1-0.2-1-0.4
	s-0.6-0.4-1.4-0.4s-1.5-0.2-1.6-0.4c-0.1-0.2-0.7-0.4-1.2-0.4s-1.1-0.2-1.2-0.4c-0.1-0.2-0.9-0.4-1.6-0.4s-1.4-0.2-1.4-0.4
	c0-0.2-0.7-0.4-1.6-0.4c-0.9,0-1.6-0.2-1.6-0.4c0-0.2-0.7-0.4-1.6-0.4c-0.9,0-1.7-0.2-1.8-0.4c-0.1-0.2-1-0.4-2-0.4s-2-0.3-2-0.5
	s-0.9-0.4-2-0.4s-2.1-0.2-2.2-0.4c-0.1-0.2-1.2-0.4-2.4-0.4s-2.3-0.2-2.4-0.4s-1.5-0.4-3-0.4c-1.8,0-2.8-0.2-2.9-0.5
	C224.9,0.2,187.1-0.1,178.3,0.3 M175,70c10.5,1.6,20.7,5.1,28.2,9.7c1.4,0.9,3,1.8,3.4,2.1c5.5,3.1,21.4,18.4,21.4,20.7
	c0,0.2,0.6,0.2,1.3-0.1c0.8-0.2,21-0.3,49.7-0.3l48.4,0.1l0.2,15.4l0.2,15.4h8h8v82v82l-25.5,0.1l-25.5,0.1V311
	c0,10.7-0.1,13.8-0.5,13.9c-0.5,0.2-1.7-0.2-9.2-3.3c-0.5-0.2-2.4-0.9-4.3-1.6s-4.2-1.6-5.2-2s-3.8-1.5-6.2-2.4l-4.4-1.7l-2.4,0.9
	c-2.6,0.9-16.2,6.2-17.8,6.9c-0.6,0.2-1.4,0.6-1.8,0.7c-0.4,0.2-1.2,0.5-1.8,0.7c-3.7,1.5-5.3,2.1-5.6,1.9c-0.2-0.1-0.4-6.4-0.4-14
	v-13.8h-13.7c-7.5,0-17.6-0.1-22.4-0.3l-8.7-0.3v8c0,6.3-0.1,8.1-0.5,8.5c-0.4,0.3-6.9,0.4-23.5,0.3l-23-0.1l-0.1-8.3l-0.1-8.3
	l-42.9-0.1l-42.9-0.1L55.3,215l-0.1-81.5l0.9-0.2c0.5-0.1,4.4-0.2,8.6-0.1l7.7,0.1l0.1-15.6l0.1-15.6l14.6-0.1l14.6-0.1l1.1-1.5
	c10.2-13.7,24.6-23.5,41.4-28.2C153.7,69.6,166.2,68.7,175,70 M154.3,94c-6.5,1.4-13.8,4.3-18.1,7.2L135,102l19.2,0.1
	c12.4,0.1,19.6,0.3,20.4,0.6c0.7,0.2,2,0.7,3,1c10,2.9,19,12.5,21.5,23c0.8,3.3,1.2,3.9,1.5,2.4c1.2-5.7,5.1-14.2,6.5-14.2
	c1,0-6.8-8.2-10.1-10.6c-0.9-0.6-1.7-1.3-1.8-1.4c-0.6-0.7-6.4-3.8-9.4-5.2C176.6,93.6,163.4,92.1,154.3,94"/>
<path id="path2" class="st3" d="M164.9,81.3l0.1,11.3l3.8,0.3c5.3,0.4,7.7,0.7,8.2,1.2c0.2,0.2,0.7,0.4,1.2,0.4
	c0.7,0,2.7,0.5,4.4,1.2c10.4,4.1,17.1,8.8,23.5,16.6c3.4,4.1,3.5,4.2,3.5,4.6c0,0.2,0.1,0.4,0.3,0.5c0.5,0.2,3.6,6.2,5,9.5
	c0.2,0.5,0.6,1.3,0.8,1.7c0.2,0.4,0.4,1,0.4,1.5c0,0.4,0.2,0.9,0.4,1s0.5,0.8,0.6,1.5s0.4,2.2,0.7,3.3c1.1,5.1,1.1,15.7,0,21.4
	c-0.2,1.2-0.5,2.8-0.7,3.5c-0.1,0.7-0.4,1.4-0.6,1.5c-0.2,0.1-0.4,0.6-0.4,1s-0.2,1.1-0.4,1.6c-0.2,0.4-0.6,1.2-0.8,1.6
	c-0.2,0.4-0.4,1.1-0.4,1.4c0,0.3-0.2,0.6-0.4,0.6s-0.4,0.3-0.4,0.6s-0.5,1.4-1,2.3c-0.6,0.9-1.1,2-1.2,2.4c-0.1,0.4-0.4,0.7-0.6,0.7
	c-0.2,0-0.4,0.2-0.4,0.5s-0.4,0.9-0.8,1.4c-0.4,0.5-0.8,1-0.8,1.2c0,1.7-13,14.1-14.7,14.1c-0.2,0-0.7,0.3-1.1,0.7
	c-1,0.9-7.6,4.1-10.8,5.3c-2.1,0.8-3.7,1.2-4.4,1.2c-0.4,0-1,0.2-1.2,0.4c-0.5,0.4-3.1,0.8-8.1,1.1l-3.7,0.2V212v11.4h2.3
	c2.2,0,8.4-0.7,12.9-1.6c2.9-0.5,6.9-1.7,9.9-2.9c0.5-0.2,1.4-0.5,1.9-0.8s1.4-0.6,1.9-0.8c3.9-1.6,12.7-6.2,13-6.9
	c0.1-0.2,0.4-0.3,0.6-0.3s0.8-0.3,1.3-0.7c0.4-0.4,1.4-1.1,2.1-1.7c3.7-2.6,12.2-11.2,14.8-14.8c0.5-0.8,1.2-1.6,1.5-1.9
	c0.3-0.3,0.5-0.7,0.5-0.9s0.2-0.6,0.5-0.9c0.9-1,3.4-5.3,5.5-9.7c2.6-5.5,2.6-5.4,3.6-8.8c0.5-1.5,1-3.1,1.2-3.5s0.4-1.2,0.4-1.8
	s0.2-1.3,0.4-1.5s0.5-1.2,0.6-2.2s0.4-3.1,0.7-4.6c0.8-5.2,0.4-23-0.5-24c-0.2-0.2-0.4-1.1-0.4-2.1s-0.2-1.8-0.4-1.9
	s-0.4-0.8-0.4-1.4s-0.2-1.3-0.4-1.4s-0.4-0.7-0.4-1.2s-0.2-1.5-0.4-2.1s-0.6-1.5-0.8-2s-0.5-1.3-0.8-1.9s-0.6-1.4-0.8-1.9
	c-1-2.7-4.1-8.5-5.9-11.4c-1.2-1.8-2.1-3.5-2.1-3.7s-0.1-0.4-0.3-0.5s-1.1-1.2-2.1-2.5c-6-8-16.7-16.6-26.4-21.3
	c-5-2.4-7.1-3.3-7.8-3.3c-0.3,0-0.7-0.2-0.8-0.4s-0.6-0.4-1-0.4s-1.1-0.2-1.5-0.4C185,72,173.2,70,168,70h-3.3L164.9,81.3
	 M328.3,133.9c-0.1,0.1-0.3,31.8-0.3,70.3c0,54-0.1,70.2-0.5,70.5c-0.4,0.4-4.9,0.5-17.8,0.5h-17.3v10.6c0,9.3,0.1,10.6,0.6,10.8
	c0.3,0.1,11.9,0.2,25.6,0.2h25v-81.6v-81.6h-7.5C331.9,133.6,328.4,133.7,328.3,133.9 M199.6,285.2c0,6.1,0.2,10.3,0.4,10.8
	c0.4,0.8,30.6,1.3,32.6,0.5c0.6-0.2,0.6-1.5,0.6-10.8v-10.6h-16.8h-16.8V285.2"/>
<path id="path3" class="st3" d="M141.4,258.5c0,21.2,0.1,42.1,0.1,46.6l0.1,8.1h23c18,0,23.1-0.1,23.2-0.5
	c0.1-0.3,0.2-21.2,0.3-46.6l0.1-46.1l-1.2,0.2c-0.7,0.1-2.4,0.6-3.8,1c-11,3-25.5,2.9-38.4-0.4c-1.7-0.4-3.2-0.8-3.3-0.8
	C141.5,220,141.4,237.3,141.4,258.5 M233.7,299.5c0.1,27.4-0.1,25.3,2.5,24.1c0.4-0.2,4.3-1.7,8.6-3.4c4.3-1.7,10.2-3.9,13.1-5.1
	c4.1-1.6,5.4-2,6-1.6c0.4,0.2,3.9,1.6,7.7,3.1c8.7,3.3,17.1,6.5,18.2,7c2.4,1,2.2,3.3,2.2-24v-24.8h-29.2h-29.2L233.7,299.5"/>
<path id="path4" class="st3" d="M162.4,69.5c-10.5,0.3-22.4,3.3-32,8.1c-17,8.5-30.5,23.1-37.2,40.2c-1.1,2.9-1.5,4-2.8,8
	c-13,41.9,15.8,87.7,60.6,96.4c3.3,0.6,17.3,1.6,17.7,1.2c0.1-0.1-0.7-0.2-1.8-0.2h-2.1v-11.4v-11.4l3.7-0.2c5-0.3,7.6-0.7,8.1-1.1
	c0.2-0.2,0.7-0.4,1.2-0.4c0.8,0,2.7-0.6,4.6-1.3c0.6-0.2,1.4-0.5,1.8-0.7c2-0.7,8.1-3.9,8.8-4.5c0.4-0.4,0.9-0.7,1.1-0.7
	c1.7,0,14.7-12.5,14.7-14.1c0-0.2,0.4-0.7,0.8-1.2c0.4-0.5,0.8-1.1,0.8-1.4c0-0.3,0.2-0.5,0.4-0.5s0.5-0.3,0.6-0.7s0.7-1.5,1.2-2.4
	c0.6-0.9,1-2,1-2.3s0.2-0.6,0.4-0.6s0.4-0.3,0.4-0.6s0.2-1,0.4-1.4s0.6-1.2,0.8-1.6c0.2-0.4,0.4-1.1,0.4-1.6c0-0.4,0.2-0.9,0.4-1
	s0.5-0.8,0.6-1.5s0.4-2.3,0.7-3.5c1.1-5.7,1.1-16.3,0-21.4c-0.2-1.1-0.5-2.6-0.7-3.3c-0.1-0.7-0.4-1.4-0.6-1.5
	c-0.2-0.1-0.4-0.6-0.4-1s-0.2-1.1-0.4-1.5s-0.5-1.1-0.8-1.7c-1.3-3.3-4.5-9.3-5-9.5c-0.2-0.1-0.3-0.3-0.3-0.5c0-0.4-0.1-0.5-3.5-4.6
	c-6.5-7.8-13.1-12.5-23.5-16.6c-1.8-0.7-3.7-1.2-4.4-1.2c-0.4,0-1-0.2-1.2-0.4c-0.4-0.4-2.9-0.8-8.2-1.2l-3.8-0.3l-0.1-11.3l0-11.1
	h3.3c1.8,0,5.1,0.3,7.4,0.6c2.3,0.3,4.4,0.5,4.7,0.5c0.5-0.2-0.3-0.3-5.3-1.1C171.9,69.6,167,69.4,162.4,69.5 M180.8,71.4
	c0.2,0.2,5.1,1.4,5.7,1.4c0.9,0-0.1-0.4-2.3-1C182.1,71.2,180.5,71,180.8,71.4 M187.4,73.2c0.1,0.2,0.6,0.4,1.1,0.4
	c0.7,0,0.8-0.1,0.3-0.4C188,72.7,187.1,72.7,187.4,73.2 M189.8,74c0.1,0.2,0.5,0.4,0.8,0.4c0.6,0,2.7,0.9,7.8,3.3s9.4,5.2,13.9,8.8
	c3.8,3.1,10.1,9.3,12.5,12.5c1,1.3,1.9,2.4,2.1,2.5c0.2,0.1,0.3,0.3,0.3,0.5s1,1.8,2.1,3.7c1.9,2.9,5,9,5.9,11.3
	c0.3,0.8,0.7,1.7,1.5,3.8c0.2,0.5,0.6,1.5,0.9,2.1c0.2,0.6,0.4,1.6,0.4,2.1s0.2,1.1,0.4,1.2s0.4,0.8,0.4,1.4c0,0.6,0.2,1.3,0.4,1.4
	s0.4,1,0.4,1.9s0.2,1.9,0.4,2.1c0.9,1,1.3,18.7,0.5,24c-0.2,1.5-0.5,3.6-0.7,4.6c-0.1,1-0.4,2-0.6,2.2c-0.2,0.2-0.4,0.9-0.4,1.5
	s-0.2,1.4-0.4,1.8c-0.2,0.4-0.7,2-1.2,3.5c-1.6,5.3-7.1,16.4-9.1,18.5c-0.3,0.3-0.5,0.7-0.5,0.9s-0.2,0.6-0.5,0.9
	c-0.3,0.3-0.9,1.1-1.5,1.9c-2.6,3.7-11.1,12.2-14.8,14.8c-0.8,0.5-1.7,1.3-2.1,1.7c-0.4,0.4-1,0.7-1.3,0.7s-0.6,0.1-0.6,0.3
	c-0.3,0.7-9.5,5.6-12.9,6.9c-0.8,0.3-2.3,0.9-3.9,1.6c-0.5,0.2-1.7,0.7-2.7,1s-1.5,0.6-1.2,0.6c0.6,0,5-1.3,6.6-2
	c0.4-0.2,1.5-0.6,2.4-1c20-8.4,36-25.9,42.9-46.8c1.5-4.6,2.2-7.7,3.3-13.7c0.6-3.2,0.6-17.9,0-21.1c-0.8-4.8-1.9-9.6-2.4-10.9
	c-0.2-0.4-0.7-2.1-1.2-3.7s-1.1-3-1.2-3.1c-0.2-0.1-0.3-0.5-0.3-0.8c0-0.7-2.8-6.7-4.2-8.9c-5.5-8.9-8.4-12.5-15.8-19.4
	c-2-1.9-8.6-7-9-7c-0.1,0-1.3-0.7-2.7-1.6C199.5,77.2,188.9,72.6,189.8,74 M171.6,93.6c8.6,1.4,20.9,6.2,23.6,9.2
	c0.1,0.1,0.9,0.7,1.8,1.4c1.6,1.2,7.6,7,9.4,9.2c2.8,3.3,6,8.8,7.5,12.8c0.5,1.3,1.1,2.8,1.2,3.2c0.3,0.8,0.7,2.2,1.6,5.7
	c1.5,6.1,1.4,18.1-0.4,24.3c-0.2,0.9-0.5,2.1-0.7,2.7c-0.1,0.6-0.4,1.2-0.6,1.3c-0.2,0.1-0.4,0.6-0.4,1s-0.2,1.1-0.4,1.5
	s-1,2.1-1.8,3.8c-5.2,11.3-16.5,21.8-28,26.3c-1.3,0.5-2.8,1.1-3.2,1.2c-10.2,4-25.5,3.6-36.8-0.9c-25.2-10.1-38.9-38.6-31.1-64.9
	c0.6-2,1.2-4,1.3-4.6c0.3-1.3,3.7-7.8,5.3-10.3C131.2,100,152.5,90.5,171.6,93.6 M327.6,133.6c-0.3,0.5-0.4,22.8-0.4,70.8v70
	l-17.5,0.1l-17.5,0.1l-0.1,24.9c-0.1,27.4,0.1,25.1-2.3,24.1c-1.1-0.4-9.5-3.7-18.2-7c-3.9-1.5-7.3-2.8-7.7-3.1
	c-0.6-0.3-1.9,0.1-6,1.6c-2.9,1.1-8.8,3.4-13.1,5.1s-8.2,3.2-8.6,3.4c-2.6,1.2-2.4,3.3-2.5-24.3l-0.1-24.9l-16.1,0.1
	c-8.9,0-19.1,0.2-22.7,0.3l-6.6,0.2l-0.2,19l-0.2,19l-23.1,0.1l-23.1,0.1l-0.1-8l-0.1-8v8.1v8.1l23,0.1c16.6,0.1,23.1,0,23.5-0.3
	c0.4-0.4,0.5-2.2,0.5-8.5v-8l8.7,0.3c4.8,0.1,14.9,0.3,22.4,0.3h13.7V311c0,15.2-0.1,14.5,2.9,13.4c1.2-0.5,2.5-1,2.9-1.1
	c1.1-0.4,2.6-1,3.8-1.5c1.7-0.7,15.2-5.9,17.8-6.9l2.4-0.9l4.4,1.7c2.4,0.9,5.2,2,6.2,2.4s3.3,1.3,5.2,2c1.9,0.7,3.8,1.4,4.3,1.6
	c7.5,3,8.7,3.4,9.2,3.3c0.4-0.1,0.5-3.3,0.5-13.9v-13.8l25.5-0.1l25.5-0.1v-82v-82l-7.9-0.1C328.4,132.8,328,132.8,327.6,133.6
	 M55.7,133.5c-0.4,0.3-0.5,16.9-0.4,81.7l0.1,81.4l42.9,0.1l42.9,0.1v-11.1v-11.1l-33.9,0.1c-24.8,0.1-34,0-34.4-0.3
	c-0.5-0.4-0.5-11.8-0.5-70.6c0-63.6-0.1-70.1-0.6-70.4C70.8,133.1,56.3,133.2,55.7,133.5 M343.6,215.2v81.6h-25
	c-13.7,0-25.3-0.1-25.6-0.2c-0.6-0.2-0.6-1.5-0.6-10.8v-10.6h17.3c12.9,0,17.4-0.1,17.8-0.5s0.5-16.6,0.5-70.5
	c0-38.5,0.1-70.2,0.3-70.3c0.1-0.1,3.7-0.3,7.8-0.3h7.5L343.6,215.2 M179.3,221.9c0.4,0.1,1,0.1,1.4,0s0.1-0.2-0.7-0.2
	S178.9,221.8,179.3,221.9 M174.3,222.7c0.5,0.1,1.3,0.1,1.8,0s0.1-0.2-0.9-0.2C174.2,222.5,173.8,222.6,174.3,222.7 M233.2,285.8
	c0,9.3-0.1,10.6-0.6,10.8c-1.9,0.7-32.1,0.2-32.6-0.5c-0.3-0.5-0.4-4.7-0.4-10.8v-10h16.8h16.8L233.2,285.8"/>
</svg>
